# xmcd
#
# Track frame offsets:
#	150
#	14175
#	26547
#	39675
#	53402
#	66842
#	78532
#	94420
#	106205
#	117302
#	128777
#	140997
#
# Disc length: 2075 seconds
#
# Revision: 1
# Processed by: cddbd v1.5PL3 Copyright (c) Steve Scherf et al.
# Submitted via: audiograbber 1.83.01
#
DISCID=ac08190c
DTITLE=Banda Toro - Rios de Babilonia
DYEAR=1993
DGENRE=Ethnic
TTITLE0=Rios de babilonia
TTITLE1=Como Paloma Herrante
TTITLE2=Me caiste del cielo
TTITLE3=El hijo desobediente
TTITLE4=La burra tuerta
TTITLE5=No volvere
TTITLE6=El Gato Parrandero
TTITLE7=Mirarom Llorar un Hombre
TTITLE8=Toro Zacatecano
TTITLE9=Bailando con banda toro
TTITLE10=El Caminante
TTITLE11=Ando que me lleva
EXTD=
EXTT0=
EXTT1=
EXTT2=
EXTT3=
EXTT4=
EXTT5=
EXTT6=
EXTT7=
EXTT8=
EXTT9=
EXTT10=
EXTT11=
PLAYORDER=
